<svg width="324" height="297" viewBox="0 0 324 297" fill="none" xmlns="http://www.w3.org/2000/svg">
<path d="M54.7722 232.54C54.2623 226.091 47.3455 225.547 43.9508 226.081C43.2059 222.748 41.7795 216.063 42.0328 215.989C42.2861 215.915 44.9766 210.777 46.2902 208.217C45.6427 206 44.8142 200.813 46.6808 197.794C42.5858 187.308 46.9645 184.654 51.3966 183.359C50.201 177.386 44.8697 172.781 42.3535 171.226C32.2866 169.7 37.0107 171.756 33.5632 163.486C31.4396 164.45 29.9348 162.828 27.8072 155.547C24.7022 151.506 27.6276 148.269 29.4785 147.155L27.9983 142.09L31.0573 138.447L29.3921 132.749L36.6735 130.621C38.4464 130.103 39.3802 126.165 39.6255 124.261C39.9729 124.274 41.111 124.17 42.8838 123.652C45.5925 115.988 50.318 119.304 52.3422 121.919L55.8246 120.902C56.3653 120.4 56.9705 117.062 55.0661 107.722C58.4523 104.259 58.4518 98.1427 58.0284 95.5175C62.1439 94.3149 63.99 92.401 65.6366 87.4529C70.6772 89.4161 70.3997 88.4664 74.1987 87.3563C82.7176 80.0564 87.0532 70.1992 86.4303 64.5398C94.5052 66.3036 95.3932 48.1762 104.325 49.3459C113.257 50.5156 112.791 40.6872 114.388 42.6257C115.985 44.5643 121.908 42.49 129.136 39.0035C134.754 45.0589 138.733 42.8423 140.021 40.977C145.542 44.9761 157.631 52.3246 161.82 49.7262C166.009 47.1278 170.461 50.2936 172.164 52.2013C176.1 51.1659 184.034 49.0766 184.287 49.0026C184.603 48.9101 186.119 44.6876 187.701 44.2251C189.284 43.7625 190.565 45.7936 190.882 45.7011C191.198 45.6086 201.87 42.1467 206.224 42.9361C209.801 41.0662 211.584 42.8587 212.029 43.9886L216.778 42.601C216.633 48.6909 220.922 46.2006 223.085 44.1942C223.776 46.1684 225.341 50.2697 226.07 50.8815C226.798 51.4933 225.98 56.0619 225.48 58.2698C226.97 57.4906 229.943 56.1409 229.912 56.9747C229.873 58.0169 224.787 71.1859 231.869 66.024C238.951 60.862 237.752 64.992 241.644 64.1985C244.757 63.5637 246.529 62.8855 247.026 62.6258C248.623 64.5644 253.123 67.0292 255.972 66.1966C260.341 69.3871 265.591 68.5402 268.27 69.4755C270.948 70.4109 272.36 71.7163 272.321 72.7585C272.282 73.8008 279.076 73.5335 281.268 76.3293C278.54 82.2806 281.944 83.3476 282.222 84.2973C282.499 85.247 282.236 86.6984 280.725 99.1664C286.873 108.915 282.932 114.557 280.193 116.159L281.95 122.174C279.979 125.774 277.589 132.726 276.64 135.752C280.186 137.694 287.351 141.831 287.647 142.844C288.017 144.111 292.624 149.293 292.677 150.652C292.731 152.011 293.076 156.721 295.73 161.099C294.322 168.039 294.653 170.348 294.799 172.023C294.945 173.699 288.691 173.464 289.737 181.749C290.784 190.034 281.973 193.983 280.259 195.171C278.544 196.359 279.377 199.208 277.082 201.94C274.788 204.672 275.368 203.129 267.955 205.982C262.061 212.858 258.063 210.934 246.812 215.94C235.561 220.945 227.023 217.599 224.082 218.115C223.595 219.975 220.326 226.428 216.001 230.441C215.357 236.47 212.323 236.67 211.149 237.356C209.975 238.043 208.197 243.717 206.483 244.905C205.111 245.856 199.976 247.723 197.579 248.537L194.35 253.948L185.485 256.538L181.662 261.092L172.203 262.825C170.625 264.088 167.279 266.669 166.519 266.891C165.57 267.169 161.941 266.511 162.073 265.785C162.178 265.204 159.672 265.799 158.405 266.169C156.967 265.559 153.592 264.277 151.597 264.036C149.602 263.794 144.522 265.301 142.231 266.085C141.531 265.259 139.626 263.754 137.599 264.346C135.067 265.086 129.934 262.806 122.94 260.039C116.862 261.815 118.989 255.925 120.812 252.758L116.273 251.335L110.258 253.093C107.566 251.406 102.25 252.341 99.9282 253.019C99.2464 252.646 97.4367 251.548 95.6523 250.145C92.6181 250.345 88.8191 251.455 80.0966 247.475C74.5988 249.356 69.3418 242.027 67.4005 238.127C65.993 237.622 61.4968 235.798 54.7722 232.54Z" fill="#FBFADA" stroke="#FBFADA"/>
<path d="M199.014 215.819C201.394 217.299 207.167 219.965 211.219 218.781C216.484 220.335 219.835 220.043 221.642 219.171M51.9867 123.054C55.2621 130.344 62.565 144.909 65.573 144.855M65.8505 145.805C66.5659 151.781 68.708 161.463 78.7749 162.988C86.8284 164.209 94.0002 173.544 96.5795 178.059L96.6041 178.52M96.8858 183.811L96.6041 178.52M250.872 129.881C253.026 129.022 258.005 127.247 260.686 127.013C264.037 126.721 261.718 132.897 263.486 133.067C265.254 133.238 269.408 130.993 276.27 134.486M96.6041 178.52C108.82 184.53 134.7 196.333 140.494 195.465M141.419 198.631C143.806 196.215 151.896 191.446 165.163 191.693C175.912 186.146 179.75 183.994 188.931 181.311C194.232 176.326 206.09 165.714 211.112 163.147C217.39 159.938 220.741 159.646 223.854 157.362C226.966 155.078 245.373 134.58 243.907 131.916C242.441 129.252 238.406 106.035 230.025 98.5188M155.135 189.125C147.93 186.42 132.193 180.229 126.883 177.107C120.245 173.205 110.597 166.06 101.413 160.497C99.8447 155.915 96.9536 145.238 97.9321 139.179C99.1553 131.606 93.5884 132.545 98.3186 120.511C97.6957 114.852 106.829 96.7201 111.301 94.3827C116.629 91.4513 134.802 77.2071 144.84 73.9303C154.878 70.6535 171.973 65.6581 187.967 73.3547C203.96 81.0513 203.093 87.4899 204.096 88.5712C205.099 89.6525 214.416 94.4896 213.879 103.237C213.343 111.984 200.517 133.943 201.125 137.201C201.223 137.723 201.238 138.807 201.204 140.271M201.629 168.323C199.523 166.053 201.028 147.944 201.204 140.271M201.204 140.271C203.506 139.323 210.031 128.872 213.005 123.765C214.381 121.416 217.643 115.881 219.689 112.535C223.79 108.931 230.171 100.194 229.708 98.6113M223.37 114.551C225.737 123.825 225.755 134.471 224.439 141.728C223.387 147.533 220.893 154.676 219.777 157.522M173.756 174.063C168.53 171.466 157.477 165.625 155.069 163.03" stroke="#436850"/>
<path d="M80.1376 95.2962C80.8048 94.7842 80.7203 95.2675 80.4563 95.8361C80.3562 95.673 80.2493 95.4923 80.1376 95.2962Z" fill="#FBFADA"/>
<path d="M97.0214 138.414C88.2736 127.684 71.8934 104.867 76.3551 99.4398C80.8169 94.0127 80.9483 94.7761 80.4563 95.8361C79.1448 93.6996 76.6795 88.5556 77.3111 85.0724M188.415 72.5365C188.137 71.5868 172.471 57.9532 174.117 53.0051" stroke="#436850"/>
<path d="M151.609 235.856C150.115 238.583 146.558 244.204 144.278 244.87C141.429 245.703 137.182 247.631 134.927 249.321C132.672 251.01 128.673 249.086 123.213 252.743" stroke="#436850"/>
<path d="M51.4892 183.675L59.7635 188.473L63.4741 195.292C67.8459 196.534 76.8642 199.489 77.9628 201.367C79.336 203.714 86.0665 207.933 96.6452 204.154M97.1098 183.402C95.995 196.441 99.0932 224.056 120.405 230.198C124.389 229.721 138.021 236.39 142.307 233.42C147.981 235.198 154.604 236.699 166.659 229.74C178.714 222.781 193.544 225.32 198.922 215.502" stroke="#436850"/>
</svg>
